<svg width="450" height="167" viewBox="0 0 450 167" fill="none" xmlns="http://www.w3.org/2000/svg">
<mask id="mask0_1_168" style="mask-type:luminance" maskUnits="userSpaceOnUse" x="0" y="0" width="167" height="167">
<path d="M0.963531 0.255249H166.932V166.224H0.963531V0.255249Z" fill="white"/>
</mask>
<g mask="url(#mask0_1_168)">
<mask id="mask1_1_168" style="mask-type:luminance" maskUnits="userSpaceOnUse" x="0" y="0" width="167" height="167">
<path d="M83.9479 0.255249C38.1146 0.255249 0.963531 37.4063 0.963531 83.2396C0.963531 129.068 38.1146 166.224 83.9479 166.224C129.781 166.224 166.932 129.068 166.932 83.2396C166.932 37.4063 129.781 0.255249 83.9479 0.255249Z" fill="white"/>
</mask>
<g mask="url(#mask1_1_168)">
<path d="M0.963531 0.255249H166.932V166.224H0.963531V0.255249Z" fill="#9BCF53"/>
</g>
</g>
<path d="M4.80266 32.7153H48.886C59.0214 32.7153 67.8235 34.059 75.2818 36.7361C82.7506 39.4028 88.7922 43.9184 93.4068 50.2778C98.0162 56.6267 100.323 64.5486 100.323 74.0486V88.1528C100.323 102.903 95.3443 113.642 85.386 120.361C76.261 126.444 64.0943 129.486 48.886 129.486H4.80266C3.78703 129.486 2.90682 129.122 2.15682 128.382C1.41724 127.648 1.05266 126.773 1.05266 125.757V36.4444C1.05266 35.434 1.41724 34.559 2.15682 33.8194C2.90682 33.0851 3.78703 32.7153 4.80266 32.7153ZM37.011 59.6736V102.528H49.5943C53.912 102.528 57.3339 101.497 59.8652 99.4236C62.4068 97.3403 63.6777 94.4132 63.6777 90.6319V71.5694C63.6777 67.7778 62.4068 64.8507 59.8652 62.7778C57.3339 60.7101 53.912 59.6736 49.5943 59.6736H37.011Z" fill="#F8F8F8"/>
<mask id="mask2_1_168" style="mask-type:luminance" maskUnits="userSpaceOnUse" x="102" y="20" width="34" height="34">
<path d="M102.708 20.9844H135.401V53.6771H102.708V20.9844Z" fill="white"/>
</mask>
<g mask="url(#mask2_1_168)">
<mask id="mask3_1_168" style="mask-type:luminance" maskUnits="userSpaceOnUse" x="102" y="20" width="34" height="34">
<path d="M119.057 20.9844C110.026 20.9844 102.708 28.3021 102.708 37.3281C102.708 46.3594 110.026 53.6771 119.057 53.6771C128.083 53.6771 135.401 46.3594 135.401 37.3281C135.401 28.3021 128.083 20.9844 119.057 20.9844Z" fill="white"/>
</mask>
<g mask="url(#mask3_1_168)">
<path d="M102.708 20.9844H135.401V53.6771H102.708V20.9844Z" fill="#F8F8F8"/>
</g>
</g>
<path d="M54.3133 151.872C54.1362 152.267 53.6727 152.45 53.2769 152.273L50.3967 151.007L51.98 147.408L54.8602 148.674C55.256 148.851 55.4383 149.314 55.2612 149.71L54.3133 151.872ZM55.98 150.028C56.3133 149.221 55.9435 148.294 55.1779 147.955L51.5789 146.372L49.3602 151.408L52.9592 152.991C53.7664 153.351 54.6935 152.95 55.0321 152.189L55.98 150.028Z" fill="#F8F8F8"/>
<path d="M59.9825 150.618L64.4929 152.004L64.7221 151.254L59.4616 149.639L57.8471 154.899L63.1075 156.514L63.3419 155.764L58.8314 154.379L59.2898 152.873L63.0502 154.03L63.2794 153.274L59.5241 152.123L59.9825 150.618Z" fill="#F8F8F8"/>
<path d="M71.8156 155.116C71.7375 155.538 71.326 155.824 70.8989 155.746L67.8052 155.178L68.2322 152.861L71.326 153.428C71.7479 153.501 72.0343 153.918 71.9562 154.34L71.8156 155.116ZM72.7322 154.48C72.8625 153.621 72.2947 152.803 71.4666 152.652L67.5968 151.944L66.6072 157.361L67.3833 157.501L67.6645 155.954L70.7583 156.517C71.6229 156.678 72.4406 156.074 72.5864 155.256L72.7322 154.48Z" fill="#F8F8F8"/>
<path d="M81.0096 154.417L81.0669 153.631L75.5721 153.256L75.52 154.037L77.8741 154.199L77.5512 158.907L78.3325 158.959L78.6606 154.256L81.0096 154.417Z" fill="#F8F8F8"/>
<path d="M83.9843 159.116L84.7708 159.106L84.7604 158.319L83.9739 158.33L83.9843 159.116Z" fill="#F8F8F8"/>
<path d="M99.5389 155.85C99.3826 154.991 98.5285 154.433 97.716 154.579L95.3931 155.001C94.966 155.074 94.5545 154.787 94.4764 154.366C94.4035 153.939 94.6899 153.527 95.1118 153.449L97.4347 153.032C97.8618 152.959 98.2733 153.241 98.3462 153.668L99.1222 153.527C98.9451 152.673 98.1222 152.11 97.2941 152.261L94.9764 152.678C94.1066 152.834 93.5597 153.683 93.7056 154.501C93.8618 155.376 94.7004 155.923 95.5285 155.772L97.8514 155.355C98.2785 155.277 98.6899 155.564 98.7629 155.991C98.841 156.418 98.5545 156.829 98.1326 156.902L95.8097 157.319C95.3826 157.397 94.9712 157.11 94.8983 156.683L94.1222 156.824C94.3045 157.694 95.1066 158.246 95.9504 158.095L98.2681 157.678C99.1379 157.522 99.6847 156.673 99.5389 155.85Z" fill="#F8F8F8"/>
<path d="M103.328 156.505L104.088 156.302L102.645 150.99L101.89 151.193L103.328 156.505Z" fill="#F8F8F8"/>
<path d="M112.193 151.93C111.89 151.113 110.953 150.712 110.177 150.998L107.963 151.805C107.557 151.956 107.099 151.748 106.953 151.342C106.802 150.936 107.015 150.477 107.422 150.331L109.635 149.519C110.041 149.373 110.495 149.581 110.646 149.988L111.38 149.717C111.057 148.904 110.156 148.493 109.364 148.779L107.151 149.592C106.323 149.894 105.927 150.826 106.213 151.607C106.521 152.446 107.443 152.837 108.229 152.545L110.448 151.732C110.854 151.587 111.307 151.795 111.453 152.201C111.604 152.607 111.396 153.061 110.989 153.212L108.771 154.024C108.364 154.17 107.911 153.962 107.765 153.555L107.026 153.826C107.354 154.649 108.239 155.055 109.041 154.758L111.255 153.951C112.083 153.644 112.479 152.717 112.193 151.93Z" fill="#F8F8F8"/>
<path d="M118.556 145.429L118.207 144.726L113.285 147.19L113.634 147.893L115.743 146.835L117.853 151.059L118.556 150.705L116.447 146.486L118.556 145.429Z" fill="#F8F8F8"/>
<path d="M121.669 143.596L125.622 141.028L125.195 140.367L120.58 143.367L123.575 147.981L128.195 144.981L127.763 144.325L123.81 146.893L122.95 145.575L126.247 143.434L125.82 142.773L122.523 144.913L121.669 143.596Z" fill="#F8F8F8"/>
<path d="M133.072 140.296L132.687 136.176L135.322 139.312L135.926 138.806L132.385 134.593L131.78 135.098L132.166 139.218L128.171 138.129L127.567 138.635L131.109 142.848L131.708 142.343L129.077 139.207L133.072 140.296Z" fill="#F8F8F8"/>
<path d="M142.663 131.759L143.168 131.16L138.965 127.608L138.46 128.207L142.663 131.759Z" fill="#F8F8F8"/>
<path d="M144.189 120.629L143.736 121.27L147.142 123.671L141.47 124.483L141.017 125.124L145.517 128.296L145.97 127.655L142.512 125.217L148.236 124.441L148.689 123.801L144.189 120.629Z" fill="#F8F8F8"/>
<path d="M146.894 117.664L149.144 113.518L148.451 113.143L145.826 117.982L150.664 120.607L151.039 119.914L148.966 118.789L150.841 115.336L150.149 114.961L148.274 118.414L146.894 117.664Z" fill="#F8F8F8"/>
<path d="M155.043 107.688C155.444 107.85 155.642 108.308 155.481 108.709L154.606 110.902C154.444 111.303 153.981 111.495 153.58 111.334L151.392 110.459C150.991 110.298 150.793 109.839 150.955 109.438L151.835 107.245C151.996 106.844 152.455 106.646 152.856 106.808L155.043 107.688ZM153.147 106.079C152.351 105.761 151.413 106.183 151.106 106.954L150.226 109.141C149.903 109.949 150.298 110.865 151.101 111.188L153.288 112.068C154.101 112.391 155.007 112.001 155.335 111.193L156.21 109.001C156.533 108.199 156.142 107.282 155.34 106.959L153.147 106.079Z" fill="#F8F8F8"/>
<path d="M156.155 98.6768C156.577 98.7913 156.822 99.2236 156.712 99.6403L155.889 102.677L153.613 102.062L154.436 99.0257C154.545 98.609 154.983 98.359 155.4 98.4736L156.155 98.6768ZM159.4 98.7393L158.858 98.5934L157.519 99.3643C157.478 98.6768 157.009 98.0934 156.363 97.9163L155.603 97.7132C154.759 97.484 153.889 98.0257 153.676 98.8226L152.65 102.614L157.962 104.052L158.165 103.291L156.65 102.885L157.322 100.385L159.254 99.2809L159.4 98.7393Z" fill="#F8F8F8"/>
<path d="M159.922 91.92L156.88 89.1023L160.938 89.6804L161.047 88.9043L155.599 88.1283L155.49 88.9043L158.526 91.722L154.828 93.5762L154.714 94.3575L160.167 95.1283L160.276 94.3523L156.219 93.7741L159.922 91.92Z" fill="#F8F8F8"/>
<path d="M156.675 81.1278C156.681 80.6956 157.04 80.3466 157.472 80.357L159.045 80.3831L158.977 84.3153L157.405 84.2893C156.972 84.2789 156.623 83.9195 156.634 83.4872L156.675 81.1278ZM157.488 79.5706C156.613 79.581 155.905 80.2737 155.889 81.1174L155.847 83.4716C155.832 84.3518 156.561 85.0601 157.394 85.0706L161.321 85.1435L161.337 84.357L159.764 84.3258L159.832 80.3987L161.405 80.4247L161.42 79.6383L157.488 79.5706Z" fill="#F8F8F8"/>
<path d="M159.153 70.6449C158.283 70.7282 157.664 71.5459 157.747 72.3636L157.981 74.7126C158.023 75.1449 157.705 75.5303 157.278 75.572C156.846 75.6188 156.461 75.3011 156.419 74.8688L156.179 72.5251C156.138 72.0928 156.455 71.7074 156.882 71.6605L156.804 70.8793C155.94 70.9886 155.315 71.7647 155.398 72.6032L155.632 74.947C155.721 75.822 156.528 76.4366 157.356 76.3532C158.242 76.2647 158.846 75.473 158.763 74.6345L158.528 72.2855C158.487 71.8584 158.799 71.4678 159.231 71.4261C159.664 71.3845 160.049 71.697 160.091 72.1293L160.33 74.4782C160.372 74.9053 160.054 75.2959 159.622 75.3376L159.705 76.1188C160.586 76.0095 161.195 75.2491 161.112 74.4001L160.872 72.0511C160.789 71.1761 159.981 70.5616 159.153 70.6449Z" fill="#F8F8F8"/>
<path d="M160.096 66.9181L159.95 66.1473L154.544 67.1681L154.689 67.9389L160.096 66.9181Z" fill="#F8F8F8"/>
<path d="M202.533 65.0249C202.533 67.1186 200.819 68.8322 198.731 68.8322H183.507V57.4155H198.731C200.819 57.4155 202.533 59.129 202.533 61.2228V65.0249ZM206.34 80.2488V77.5457L201.049 72.2593C204.21 71.1915 206.34 68.2593 206.34 65.0249V61.2228C206.34 56.9988 202.726 53.6082 198.731 53.6082H179.7V80.2488H183.507V72.6395H196.028L203.637 80.2488H206.34Z" fill="#9BCF53"/>
<path d="M213.562 57.4155H236.396V53.6082H209.755V80.2488H236.396V76.4415H213.562V68.8322H232.588V65.0249H213.562V57.4155Z" fill="#9BCF53"/>
<path d="M246.664 53.6082C242.399 53.7228 239.05 57.1134 239.05 61.2228V72.6395C239.05 76.9363 242.591 80.2488 246.664 80.2488H258.076C262.341 80.2488 265.69 76.6707 265.69 72.6395H261.883C261.883 74.7332 260.169 76.4415 258.076 76.4415H246.664C244.571 76.4415 242.857 74.7332 242.857 72.6395V61.2228C242.857 59.129 244.571 57.4155 246.664 57.4155H258.076C260.169 57.4155 261.883 59.129 261.883 61.2228H265.69C265.576 56.9988 262.149 53.6082 258.076 53.6082H246.664Z" fill="#9BCF53"/>
<path d="M291.558 65.0249C291.558 67.1186 289.844 68.8322 287.756 68.8322H272.532V57.4155H287.756C289.844 57.4155 291.558 59.129 291.558 61.2228V65.0249ZM295.365 80.2488V77.5457L290.073 72.2593C293.235 71.1915 295.365 68.2593 295.365 65.0249V61.2228C295.365 56.9988 291.75 53.6082 287.756 53.6082H268.724V80.2488H272.532V72.6395H285.053L292.662 80.2488H295.365Z" fill="#9BCF53"/>
<path d="M321.613 72.6395C321.613 74.7332 319.9 76.4415 317.811 76.4415H306.394C304.301 76.4415 302.587 74.7332 302.587 72.6395V53.6082H298.78V72.6395C298.78 76.9363 302.321 80.2488 306.394 80.2488H317.811C322.071 80.2488 325.42 76.6707 325.42 72.6395V53.6082H321.613V72.6395Z" fill="#9BCF53"/>
<path d="M329.216 80.2488H333.023V53.6082H329.216V80.2488Z" fill="#9BCF53"/>
<path d="M361.564 57.4155V53.6082H334.923V57.4155H346.34V80.2488H350.147V57.4155H361.564Z" fill="#9BCF53"/>
<path d="M367.263 53.6082H363.456V80.2488H390.097V76.4415H367.263V53.6082Z" fill="#9BCF53"/>
<path d="M411.021 57.4155C413.109 57.4155 414.823 59.129 414.823 61.2228V68.8322H395.797V61.2228C395.797 59.129 397.51 57.4155 399.604 57.4155H411.021ZM418.63 61.2228C418.516 56.9988 415.088 53.6082 411.021 53.6082H399.604C395.338 53.6082 391.989 57.1863 391.989 61.2228V80.2488H395.797V72.6395H414.823V80.2488H418.63V61.2228Z" fill="#9BCF53"/>
<path d="M441.457 80.2488C445.717 80.1343 449.066 76.7488 449.066 72.6395C449.066 70.353 448.191 68.452 446.477 66.9311C448.191 65.4051 449.066 63.504 449.066 61.2228C449.066 56.9988 445.451 53.6082 441.457 53.6082H422.425V80.2488H441.457ZM441.457 68.8322C443.545 68.8322 445.259 70.5457 445.259 72.6395C445.259 74.7332 443.545 76.4415 441.457 76.4415H426.233V68.8322H441.457ZM426.233 57.4155H441.457C443.545 57.4155 445.259 59.129 445.259 61.2228C445.259 63.3165 443.545 65.0249 441.457 65.0249H426.233V57.4155Z" fill="#9BCF53"/>
<path d="M183.063 119.243H191.402C198.048 119.243 202.501 114.998 202.501 108.712C202.501 102.451 198.048 98.1807 191.402 98.1807H183.063V119.243ZM187.85 114.853V102.571H191.251C195.043 102.571 197.6 105.009 197.6 108.712C197.6 112.415 195.043 114.853 191.308 114.853H187.85Z" fill="#F8F8F8"/>
<path d="M220.911 119.665C225.906 119.665 228.973 117.285 228.973 113.316C228.973 109.978 226.781 107.988 221.541 106.754C218.322 106.004 217.208 105.191 217.208 103.899C217.208 102.514 218.442 101.67 220.458 101.67C222.656 101.67 223.979 102.816 223.979 104.712H228.583C228.583 100.467 225.395 97.7588 220.4 97.7588C215.557 97.7588 212.546 100.134 212.546 103.988C212.546 107.42 214.864 109.462 219.796 110.519C222.775 111.149 224.13 112.019 224.13 113.498C224.13 114.91 222.864 115.722 220.88 115.722C218.562 115.722 217.057 114.55 217.057 112.535H212.364C212.364 116.894 215.614 119.665 220.911 119.665Z" fill="#F8F8F8"/>
<path d="M240.13 119.243H244.917V98.1807H240.13V119.243Z" fill="#F8F8F8"/>
</svg>
